<?xml version="1.0" encoding="UTF-8"?>
<svg width="203px" height="131px" viewBox="0 0 203 131" version="1.1" xmlns="http://www.w3.org/2000/svg" xmlns:xlink="http://www.w3.org/1999/xlink">
    <title>Group 3</title>
    <g id="Page-1" stroke="none" stroke-width="1" fill="none" fill-rule="evenodd">
        <g id="Group-3" fill-rule="nonzero">
            <g id="vigo-copy-5" transform="translate(115.000000, 96.000000)">
                <polygon id="Path" fill="#58595B" points="10.6297606 27 6.37061278 27 0 8 5.69218098 8 9.27327037 20.0234464 12.9294092 8 17 8"></polygon>
                <path d="M25,5.75703194 L20,5.75703194 L20,0 L25,0 L25,5.75703194 Z M25,27 L20,27 L20,7.42459687 L25,7.42459687 L25,27 Z" id="Shape" fill="#58595B"></path>
                <path d="M48,7.70154247 C47.3006075,7.58579765 47.0054543,7.54721604 46.5636367,7.54721604 C45.3852132,7.54721604 44.7219395,8.08735856 44.5008482,9.16726161 C45.6059395,10.5172359 45.9375764,11.3652673 45.9375764,12.7924049 C45.9375764,16.4943293 42.8806071,18.6923351 37.7612142,18.6923351 C36.6192743,18.6923351 35.8458199,18.6155538 34.8144257,18.4230278 C34.1146683,18.8466615 33.8567285,19.2324776 33.8567285,19.8494013 C33.8567285,21.160412 34.5564859,21.4304833 38.3504259,21.6237733 C42.8806071,21.854881 43.2487276,21.8938446 44.6850909,22.3174783 C46.6376986,22.934402 47.8898192,24.6319928 47.8898192,26.7520713 C47.8898192,28.6039886 46.8949087,30.339397 45.3115161,31.3413728 C43.4698189,32.5366387 41.2231526,33 37.466061,33 C34.151152,33 32.0887284,32.7299287 30.4677575,31.9972602 C28.9576971,31.3803364 28,30.0307441 28,28.565407 C28,26.8299986 28.9945457,25.7504775 31.1306664,25.1327898 C29.4732118,24.2075951 28.8106678,23.2438189 28.8106678,21.7395182 C28.8106678,20.5056707 29.3998796,19.3482224 30.3572119,18.6545174 C30.9464237,18.2301197 31.3521224,17.9986301 32.4568489,17.4974512 C30.2470311,16.4557477 29.2524855,15.0293742 29.2524855,12.8699501 C29.2524855,9.20622522 32.4940623,6.89209268 37.6134552,6.89209268 C39.417939,6.89209268 40.4124847,7.04641912 42.4015761,7.70230647 C42.8065452,4.8484134 43.7277586,4 46.5267882,4 C47.0795162,4 47.3743045,4.03858161 48,4.15432644 L48,7.70154247 L48,7.70154247 Z M34.5933344,26.2505104 C34.2985461,26.1737292 34.0778197,26.1737292 34.0041227,26.1737292 C33.3040004,26.2505104 32.6779401,26.983943 32.6779401,27.7548112 C32.6779401,29.1051675 34.1146683,29.6067284 37.9082435,29.6067284 C41.4442438,29.6067284 42.8806071,29.1055495 42.8806071,27.7937748 C42.8806071,26.5599273 41.4810923,26.290238 35.8458199,26.290238 L34.5933344,26.2505104 Z M34.630183,12.7534413 C34.630183,14.5660129 35.7349094,15.6455339 37.540123,15.6455339 C39.4183039,15.6455339 40.6707893,14.4888497 40.6707893,12.7534413 C40.6707893,11.0566145 39.4555172,9.9385118 37.5769715,9.9385118 C35.7349094,9.9385118 34.630183,11.0180329 34.630183,12.7534413 Z" id="Shape" fill="#8CC640"></path>
                <path d="M66,17.0583124 C66,22.9451632 62.4697056,27 57.3913618,27 C54.7262482,27 52.7811077,26.0646843 51.1966673,24.0758834 C49.6839388,22.1268585 49,19.9048079 49,16.8636802 C49,10.9764433 52.3858003,7 57.3917186,7 C62.5785221,6.99961383 66,10.9764433 66,17.0583124 Z M54.5111125,16.5126472 C54.5111125,21.3081676 55.3748662,23.2954238 57.4998216,23.2954238 C59.5527083,23.2954238 60.4903146,21.4240201 60.4903146,17.1745511 C60.4903146,12.4964279 59.6611681,10.7030315 57.5358559,10.7030315 C55.4105438,10.7030315 54.5111125,12.4191929 54.5111125,16.5126472 Z" id="Shape" fill="#58595B"></path>
            </g>
            <text id="by" fill="#58595B" font-family="Nunito-Bold, Nunito" font-size="24" font-weight="bold" letter-spacing="0.135">
                <tspan x="78.473" y="123">by</tspan>
            </text>
            <text id="FINT-Copy-2" fill="#8CC640" font-family="Nunito-Black, Nunito" font-size="84" font-weight="800" letter-spacing="0.4725">
                <tspan x="4.249" y="85">FINT</tspan>
            </text>
        </g>
    </g>
</svg>